<svg width="378" height="421" viewBox="0 0 378 421" fill="none" xmlns="http://www.w3.org/2000/svg">
<rect x="2" y="2" width="374" height="417" rx="18" fill="#8CB9BD"/>
<rect x="2" y="2" width="374" height="417" rx="18" stroke="black" stroke-width="4"/>
<path d="M76.806 83V56.4H88.586C90.4353 56.4 91.9807 56.666 93.222 57.198C94.4887 57.7047 95.4513 58.452 96.11 59.44C96.7687 60.4027 97.098 61.5807 97.098 62.974C97.098 64.4687 96.718 65.7227 95.958 66.736C95.2233 67.7493 94.1593 68.4587 92.766 68.864L92.728 68.066C93.868 68.3447 94.8687 68.8133 95.73 69.472C96.6167 70.1053 97.3007 70.8907 97.782 71.828C98.2633 72.74 98.504 73.7787 98.504 74.944C98.504 76.2867 98.2633 77.4647 97.782 78.478C97.326 79.4913 96.6673 80.34 95.806 81.024C94.97 81.6827 93.9693 82.1767 92.804 82.506C91.664 82.8353 90.3973 83 89.004 83H76.806ZM82.962 77.566H88.738C89.802 77.566 90.6253 77.3127 91.208 76.806C91.816 76.2993 92.12 75.5773 92.12 74.64C92.12 74.0573 91.968 73.5633 91.664 73.158C91.3853 72.7527 90.98 72.4487 90.448 72.246C89.916 72.0433 89.2827 71.942 88.548 71.942H82.962V77.566ZM82.962 67.04H87.712C88.3707 67.04 88.928 66.9387 89.384 66.736C89.84 66.508 90.182 66.204 90.41 65.824C90.6633 65.4187 90.79 64.95 90.79 64.418C90.79 63.6073 90.5113 62.974 89.954 62.518C89.3967 62.062 88.5607 61.834 87.446 61.834H82.962V67.04ZM125.757 83V77.528H130.241V61.872H125.757V56.4H141.223V61.872H136.739V77.528H141.223V83H125.757ZM170.129 83V56.4H175.943L189.927 75.362L188.673 75.21C188.495 73.7913 188.343 72.474 188.217 71.258C188.09 70.0167 188.001 68.7247 187.951 67.382C187.925 66.0393 187.913 64.494 187.913 62.746V56.4H194.221V83H188.331L173.815 63.468L175.677 63.734C175.854 65.2793 175.993 66.5587 176.095 67.572C176.196 68.5853 176.272 69.4593 176.323 70.194C176.373 70.9033 176.411 71.5747 176.437 72.208C176.462 72.816 176.475 73.5 176.475 74.26V83H170.129ZM235.968 83.38C233.84 83.38 231.915 83.038 230.192 82.354C228.495 81.67 227.025 80.7073 225.784 79.466C224.543 78.2247 223.593 76.768 222.934 75.096C222.275 73.424 221.946 71.6 221.946 69.624C221.946 67.648 222.301 65.824 223.01 64.152C223.719 62.48 224.707 61.0233 225.974 59.782C227.266 58.5407 228.786 57.578 230.534 56.894C232.307 56.21 234.245 55.868 236.348 55.868C237.792 55.868 239.16 56.058 240.452 56.438C241.769 56.818 242.96 57.3373 244.024 57.996C245.113 58.6547 246.013 59.402 246.722 60.238L242.732 64.418C241.82 63.5567 240.832 62.8853 239.768 62.404C238.729 61.8973 237.551 61.644 236.234 61.644C235.145 61.644 234.131 61.8467 233.194 62.252C232.282 62.632 231.471 63.1893 230.762 63.924C230.078 64.6333 229.546 65.482 229.166 66.47C228.786 67.4327 228.596 68.484 228.596 69.624C228.596 70.764 228.799 71.8153 229.204 72.778C229.609 73.7407 230.167 74.5893 230.876 75.324C231.611 76.0333 232.459 76.5907 233.422 76.996C234.385 77.4013 235.423 77.604 236.538 77.604C237.323 77.604 238.045 77.49 238.704 77.262C239.388 77.0087 239.983 76.6793 240.49 76.274C241.022 75.8433 241.427 75.3493 241.706 74.792C242.01 74.2093 242.162 73.5887 242.162 72.93V71.942L242.998 73.234H235.74V68.104H248.242C248.293 68.3827 248.331 68.7627 248.356 69.244C248.381 69.7253 248.394 70.194 248.394 70.65C248.419 71.0807 248.432 71.4227 248.432 71.676C248.432 73.3987 248.115 74.982 247.482 76.426C246.874 77.8447 246 79.0733 244.86 80.112C243.745 81.1507 242.428 81.9613 240.908 82.544C239.388 83.1013 237.741 83.38 235.968 83.38ZM288.228 83.38C286.226 83.38 284.377 83.038 282.68 82.354C281.008 81.67 279.551 80.72 278.31 79.504C277.094 78.2627 276.144 76.806 275.46 75.134C274.776 73.4367 274.434 71.5873 274.434 69.586C274.434 67.61 274.776 65.786 275.46 64.114C276.144 62.4167 277.094 60.9473 278.31 59.706C279.551 58.4647 281.008 57.502 282.68 56.818C284.377 56.134 286.226 55.792 288.228 55.792C290.204 55.792 292.028 56.134 293.7 56.818C295.372 57.502 296.816 58.4647 298.032 59.706C299.273 60.9473 300.236 62.4167 300.92 64.114C301.604 65.786 301.946 67.6227 301.946 69.624C301.946 71.6 301.604 73.424 300.92 75.096C300.236 76.768 299.273 78.2247 298.032 79.466C296.816 80.7073 295.372 81.67 293.7 82.354C292.028 83.038 290.204 83.38 288.228 83.38ZM288.228 77.262C289.266 77.262 290.216 77.072 291.078 76.692C291.939 76.312 292.686 75.78 293.32 75.096C293.978 74.412 294.485 73.6013 294.84 72.664C295.194 71.7267 295.372 70.7133 295.372 69.624C295.372 68.5093 295.194 67.4833 294.84 66.546C294.485 65.6087 293.978 64.798 293.32 64.114C292.686 63.4047 291.939 62.86 291.078 62.48C290.216 62.1 289.266 61.91 288.228 61.91C287.189 61.91 286.226 62.1 285.34 62.48C284.478 62.86 283.718 63.4047 283.06 64.114C282.426 64.798 281.932 65.6087 281.578 66.546C281.223 67.4833 281.046 68.5093 281.046 69.624C281.046 71.0933 281.35 72.4107 281.958 73.576C282.591 74.716 283.44 75.6153 284.504 76.274C285.593 76.9327 286.834 77.262 288.228 77.262Z" fill="black"/>
<rect x="55" y="106" width="36" height="36" fill="white" stroke="black" stroke-width="4"/>
<rect x="113" y="106" width="36" height="36" fill="white" stroke="black" stroke-width="4"/>
<rect x="171" y="106" width="36" height="36" fill="white" stroke="black" stroke-width="4"/>
<rect x="229" y="106" width="36" height="36" fill="white" stroke="black" stroke-width="4"/>
<rect x="287" y="106" width="36" height="36" fill="#6AAA64" stroke="black" stroke-width="4"/>
<rect x="55" y="164" width="36" height="36" fill="white" stroke="black" stroke-width="4"/>
<rect x="55" y="222" width="36" height="36" fill="white" stroke="black" stroke-width="4"/>
<rect x="55" y="280" width="36" height="36" fill="white" stroke="black" stroke-width="4"/>
<rect x="55" y="338" width="36" height="36" fill="white" stroke="black" stroke-width="4"/>
<rect x="113" y="164" width="36" height="36" fill="white" stroke="black" stroke-width="4"/>
<rect x="113" y="222" width="36" height="36" fill="white" stroke="black" stroke-width="4"/>
<rect x="113" y="280" width="36" height="36" fill="white" stroke="black" stroke-width="4"/>
<rect x="113" y="338" width="36" height="36" fill="white" stroke="black" stroke-width="4"/>
<rect x="171" y="164" width="36" height="36" fill="white" stroke="black" stroke-width="4"/>
<rect x="171" y="222" width="36" height="36" fill="white" stroke="black" stroke-width="4"/>
<rect x="171" y="280" width="36" height="36" fill="white" stroke="black" stroke-width="4"/>
<rect x="171" y="338" width="36" height="36" fill="white" stroke="black" stroke-width="4"/>
<rect x="229" y="164" width="36" height="36" fill="white" stroke="black" stroke-width="4"/>
<rect x="229" y="222" width="36" height="36" fill="white" stroke="black" stroke-width="4"/>
<rect x="229" y="280" width="36" height="36" fill="white" stroke="black" stroke-width="4"/>
<rect x="229" y="338" width="36" height="36" fill="white" stroke="black" stroke-width="4"/>
<rect x="287" y="164" width="36" height="36" fill="#6AAA64" stroke="black" stroke-width="4"/>
<rect x="287" y="222" width="36" height="36" fill="#6AAA64" stroke="black" stroke-width="4"/>
<rect x="287" y="280" width="36" height="36" fill="#6AAA64" stroke="black" stroke-width="4"/>
<rect x="287" y="338" width="36" height="36" fill="#6AAA64" stroke="black" stroke-width="4"/>
</svg>
